<?xml version="1.0" encoding="UTF-8"?>
<svg width="15px" height="13px" viewBox="0 0 15 13" version="1.1" xmlns="http://www.w3.org/2000/svg" xmlns:xlink="http://www.w3.org/1999/xlink">
    <title>Email</title>
    <g id="Welcome" stroke="none" stroke-width="1" fill="none" fill-rule="evenodd">
        <g id="Need-Help" transform="translate(-273.000000, -418.000000)" fill="#0E143D" fill-rule="nonzero">
            <g id="Form" transform="translate(272.000000, 335.000000)">
                <g id="Email" transform="translate(1.000000, 83.578947)">
                    <path d="M13.4556295,0.421052632 L1.54417292,0.421052632 C1.34865003,0.421052632 1.16560312,0.472043055 1,0.556088925 L7.47167501,7.42105263 L8.92219122,5.94233036 C8.92219122,5.94233036 8.92230413,5.94218066 8.92233235,5.94212077 C8.92236058,5.94206089 8.92247348,5.94200101 8.92247348,5.94200101 L14,0.556208691 C13.8343687,0.472102938 13.6512088,0.421052632 13.4556295,0.421052632 Z" id="Path"></path>
                    <path d="M14.8704161,1.42105263 L10,5.92101276 L14.8702435,10.4210526 C14.9510032,10.265085 15,10.0926885 15,9.90854196 L15,1.93337721 C15,1.749337 14.9511183,1.5769671 14.8704161,1.42105263 Z" id="Path"></path>
                    <path d="M0.155706057,1.42105263 C0.0587954358,1.57701935 0,1.74941481 0,1.93356027 L0,9.90867791 C0,10.092717 0.0587263866,10.2651391 0.155567959,10.4210526 L6,5.92111909 L0.155706057,1.42105263 Z" id="Path"></path>
                    <path d="M9.22195347,6.42111017 L7.77123967,7.8421725 C7.68853691,7.92647012 7.58020475,7.96861893 7.47190082,7.96861893 C7.36359689,7.96861893 7.2552365,7.92647012 7.17256196,7.8421725 L5.77830057,6.42105263 L1,11.2911825 C1.16563134,11.3719989 1.34879116,11.4210526 1.5443705,11.4210526 L13.4558271,11.4210526 C13.65135,11.4210526 13.8343969,11.3720564 14,11.2912976 L9.22195347,6.42111017 Z" id="Path"></path>
                </g>
            </g>
        </g>
    </g>
</svg>