<?xml version="1.0" encoding="utf-8"?>
<!-- Generator: Adobe Illustrator 16.0.0, SVG Export Plug-In . SVG Version: 6.00 Build 0)  -->
<!DOCTYPE svg PUBLIC "-//W3C//DTD SVG 1.1//EN" "http://www.w3.org/Graphics/SVG/1.1/DTD/svg11.dtd">
<svg version="1.1" id="Layer_1" xmlns="http://www.w3.org/2000/svg" xmlns:xlink="http://www.w3.org/1999/xlink" x="0px" y="0px"
	 width="19px" height="20.163px" viewBox="17.654 385.918 19 20.163" enable-background="new 17.654 385.918 19 20.163"
	 xml:space="preserve">
<g>
	<g>
		<path fill="#0E143D" d="M36.545,391.375l-5.137-5.337c-0.073-0.076-0.174-0.119-0.28-0.119h-7.656
			c-0.857,0-1.554,0.697-1.554,1.553v5.426h-3.103c-0.641,0-1.163,0.521-1.163,1.162v5.819c0,0.641,0.521,1.162,1.163,1.162h3.103
			v3.49c0,0.854,0.697,1.55,1.554,1.55H35.1c0.857,0,1.554-0.694,1.554-1.549v-12.889C36.654,391.544,36.615,391.447,36.545,391.375
			z M31.225,386.965l4.217,4.382h-4.217V386.965z M18.816,400.266c-0.213,0-0.387-0.173-0.387-0.387v-5.819
			c0-0.213,0.173-0.387,0.387-0.387h10.471c0.213,0,0.387,0.174,0.387,0.387v5.819c0,0.214-0.174,0.387-0.387,0.387H18.816z
			 M35.878,404.532c0,0.427-0.349,0.774-0.778,0.774H23.473c-0.429,0-0.779-0.348-0.779-0.775v-3.49h6.593
			c0.641,0,1.163-0.521,1.163-1.162v-5.819c0-0.641-0.521-1.162-1.163-1.162h-6.593v-5.426c0-0.429,0.35-0.778,0.779-0.778h6.977
			v5.041c0,0.214,0.174,0.388,0.388,0.388h5.041V404.532L35.878,404.532z"/>
	</g>
</g>
<g>
	<g>
		<path fill="#0E143D" d="M22.29,395.759c-0.129-0.167-0.289-0.276-0.479-0.326c-0.124-0.034-0.391-0.05-0.8-0.05h-1.08v3.33h0.673
			v-1.256h0.438c0.305,0,0.537-0.016,0.697-0.048c0.119-0.025,0.235-0.078,0.349-0.158c0.114-0.079,0.208-0.189,0.283-0.328
			c0.074-0.14,0.111-0.312,0.111-0.516C22.482,396.143,22.418,395.927,22.29,395.759z M21.714,396.676
			c-0.051,0.074-0.121,0.129-0.21,0.164c-0.09,0.035-0.267,0.052-0.532,0.052h-0.368v-0.945h0.325c0.242,0,0.403,0.008,0.484,0.023
			c0.109,0.02,0.199,0.069,0.27,0.148c0.071,0.079,0.107,0.179,0.107,0.3C21.79,396.516,21.764,396.602,21.714,396.676z"/>
	</g>
</g>
<g>
	<g>
		<path fill="#0E143D" d="M25.716,396.293c-0.073-0.213-0.179-0.393-0.318-0.54c-0.139-0.146-0.307-0.249-0.502-0.307
			c-0.146-0.042-0.357-0.063-0.634-0.063h-1.229v3.33h1.265c0.249,0,0.447-0.023,0.595-0.069c0.199-0.064,0.356-0.153,0.473-0.267
			c0.155-0.15,0.273-0.347,0.357-0.589c0.068-0.197,0.102-0.435,0.102-0.709C25.825,396.769,25.789,396.506,25.716,396.293z
			 M25.061,397.662c-0.045,0.148-0.104,0.255-0.176,0.32c-0.071,0.065-0.162,0.111-0.271,0.139
			c-0.083,0.021-0.219,0.032-0.407,0.032h-0.502l0,0v-2.207h0.303c0.274,0,0.458,0.011,0.552,0.032
			c0.126,0.027,0.229,0.079,0.312,0.157c0.082,0.077,0.146,0.185,0.19,0.322c0.045,0.138,0.068,0.336,0.068,0.594
			S25.106,397.512,25.061,397.662z"/>
	</g>
</g>
<g>
	<g>
		<polygon fill="#0E143D" points="28.683,395.947 28.683,395.384 26.399,395.384 26.399,398.714 27.072,398.714 27.072,397.299 
			28.462,397.299 28.462,396.735 27.072,396.735 27.072,395.947 		"/>
	</g>
</g>
</svg>
