<?xml version="1.0" encoding="UTF-8"?>
<svg width="15px" height="16px" viewBox="0 0 15 16" version="1.1" xmlns="http://www.w3.org/2000/svg" xmlns:xlink="http://www.w3.org/1999/xlink">
    <title>Path</title>
    <g id="Welcome" stroke="none" stroke-width="1" fill="none" fill-rule="evenodd">
        <g id="Need-Help" transform="translate(-273.000000, -383.000000)" fill="#0E143D" fill-rule="nonzero">
            <g id="Form" transform="translate(272.000000, 335.000000)">
                <path d="M14.7963703,58.1939341 C13.8780133,58.1939341 12.9762969,58.0536682 12.121807,57.7779047 C11.7030971,57.6384398 11.1883719,57.7663843 10.9328257,58.0226929 L9.24622853,59.266051 C7.29025706,58.2464241 6.08541644,57.0702046 5.05557538,55.1744212 L6.29131435,53.5702703 C6.6123682,53.2571611 6.72752415,52.7997805 6.58955576,52.3706286 C6.30596274,51.5317796 6.16190062,50.6516176 6.16190062,49.754404 C6.16193968,49.1062511 5.62198015,48.5789474 4.95831,48.5789474 L2.20362968,48.5789474 C1.53995953,48.5789474 1,49.1062511 1,49.7543659 C1,57.1834625 7.18896826,63.227333 14.7963703,63.227333 C15.4600405,63.227333 16,62.7000293 16,62.0519145 L16,59.3693145 C16,58.7212378 15.4600014,58.1939341 14.7963703,58.1939341 Z" id="Path"></path>
            </g>
        </g>
    </g>
</svg>